<svg width="26" height="26" viewBox="0 0 26 26" fill="none" xmlns="http://www.w3.org/2000/svg">
<path fill-rule="evenodd" clip-rule="evenodd" d="M2.52089 5.91931C2.16666 6.58204 2.16666 7.45752 2.16666 9.2085V10.021C2.16666 10.4697 2.53043 10.8335 2.97916 10.8335H3.24999C4.44661 10.8335 5.41666 11.8035 5.41666 13.0002C5.41666 14.1968 4.44661 15.1668 3.24999 15.1668H2.97916C2.53043 15.1668 2.16666 15.5306 2.16666 15.9793V16.7918C2.16666 18.5428 2.16666 19.4183 2.52089 20.081C2.80059 20.6043 3.22918 21.0329 3.75247 21.3126C4.4152 21.6668 5.29068 21.6668 7.04165 21.6668H18.9583C20.7093 21.6668 21.5848 21.6668 22.2475 21.3126C22.7708 21.0329 23.1994 20.6043 23.4791 20.081C23.8333 19.4183 23.8333 18.5428 23.8333 16.7918V15.9793C23.8333 15.5306 23.4696 15.1668 23.0208 15.1668H22.75C21.5534 15.1668 20.5833 14.1968 20.5833 13.0002C20.5833 11.8035 21.5534 10.8335 22.75 10.8335H23.0208C23.4696 10.8335 23.8333 10.4697 23.8333 10.021V9.2085C23.8333 7.45752 23.8333 6.58204 23.4791 5.91931C23.1994 5.39602 22.7708 4.96743 22.2475 4.68773C21.5848 4.3335 20.7093 4.3335 18.9583 4.3335H7.04166C5.29068 4.3335 4.4152 4.3335 3.75247 4.68773C3.22918 4.96743 2.80059 5.39602 2.52089 5.91931ZM12.941 10.8399C12.793 10.8726 12.702 11.1082 12.5198 11.5794C12.4162 11.8474 12.3644 11.9814 12.2675 12.0725C12.2404 12.0981 12.2109 12.1208 12.1794 12.1405C12.0674 12.2106 11.9276 12.2235 11.648 12.2495C11.1746 12.2935 10.9379 12.3155 10.8656 12.4556C10.8506 12.4846 10.8405 12.516 10.8355 12.5485C10.8115 12.7054 10.9855 12.8697 11.3336 13.1983L11.4302 13.2895C11.5929 13.4431 11.6742 13.5199 11.7213 13.6158C11.7495 13.6733 11.7684 13.7352 11.7773 13.7991C11.7921 13.9056 11.7683 14.017 11.7206 14.2398L11.7036 14.3195C11.6182 14.7191 11.5754 14.9189 11.6288 15.0171C11.6767 15.1054 11.7649 15.1618 11.8624 15.1667C11.9709 15.172 12.1238 15.0428 12.4296 14.7842C12.6311 14.6138 12.7318 14.5286 12.8436 14.4953C12.9458 14.4649 13.0542 14.4649 13.1564 14.4953C13.2682 14.5286 13.3689 14.6138 13.5704 14.7842C13.8762 15.0428 14.0291 15.172 14.1376 15.1667C14.2351 15.1618 14.3233 15.1054 14.3712 15.0171C14.4245 14.9189 14.3818 14.7191 14.2964 14.3195L14.2793 14.2398C14.2317 14.017 14.2079 13.9056 14.2227 13.7991C14.2315 13.7352 14.2505 13.6733 14.2787 13.6158C14.3257 13.5199 14.4071 13.4431 14.5698 13.2895L14.6664 13.1983C15.0144 12.8697 15.1884 12.7054 15.1645 12.5485C15.1595 12.516 15.1493 12.4846 15.1344 12.4556C15.0621 12.3155 14.8254 12.2935 14.352 12.2495C14.0724 12.2235 13.9325 12.2106 13.8205 12.1405C13.7891 12.1208 13.7596 12.0981 13.7324 12.0725C13.6355 11.9814 13.5837 11.8474 13.4802 11.5794C13.298 11.1082 13.207 10.8726 13.059 10.8399C13.0201 10.8313 12.9799 10.8313 12.941 10.8399Z" fill="#B9C8CB"/>
</svg>
