<svg width="26" height="26" viewBox="0 0 26 26" fill="none" xmlns="http://www.w3.org/2000/svg">
<path fill-rule="evenodd" clip-rule="evenodd" d="M2.16812 10.9167H23.8319C23.8207 8.50712 23.7236 7.21083 22.8814 6.36865C21.9295 5.41675 20.3975 5.41675 17.3333 5.41675H8.66666C5.60253 5.41675 4.07047 5.41675 3.11857 6.36865C2.27639 7.21083 2.17931 8.50712 2.16812 10.9167ZM23.8333 12.9167H2.16666V15.1667C2.16666 18.2309 2.16666 19.7629 3.11857 20.7148C4.07047 21.6667 5.60253 21.6667 8.66666 21.6667H17.3333C20.3975 21.6667 21.9295 21.6667 22.8814 20.7148C23.8333 19.7629 23.8333 18.2309 23.8333 15.1667V12.9167ZM7.58333 16.3334C7.03105 16.3334 6.58333 16.7811 6.58333 17.3334C6.58333 17.8857 7.03105 18.3334 7.58333 18.3334H7.59416C8.14645 18.3334 8.59416 17.8857 8.59416 17.3334C8.59416 16.7811 8.14645 16.3334 7.59416 16.3334H7.58333Z" fill="#507957"/>
</svg>
