<svg width="18" height="18" viewBox="0 0 18 18" fill="none" xmlns="http://www.w3.org/2000/svg">
<path d="M9 17.3334C7.74005 17.3369 6.49602 17.0518 5.36333 16.5C4.94879 16.2984 4.55161 16.0628 4.17583 15.7958L4.06167 15.7125C3.02818 14.9497 2.18323 13.9602 1.59167 12.82C0.979781 11.6399 0.662423 10.3293 0.666625 8.99999C0.666625 4.39762 4.39763 0.666656 9 0.666656C13.6024 0.666656 17.3334 4.39762 17.3334 8.99999C17.3375 10.3287 17.0205 11.6386 16.4092 12.8183C15.8184 13.9578 14.9747 14.947 13.9425 15.71C13.5531 15.995 13.1399 16.2459 12.7075 16.46L12.6408 16.4933C11.5074 17.0481 10.2619 17.3355 9 17.3334ZM9 13.1666C7.75123 13.1642 6.60639 13.8617 6.03583 14.9725C7.90366 15.8976 10.0963 15.8976 11.9642 14.9725V14.9683C11.3929 13.8587 10.248 13.1628 9 13.1666ZM9 11.5C10.8051 11.5023 12.4695 12.4751 13.3575 14.0467L13.37 14.0358L13.3817 14.0258L13.3675 14.0383L13.3592 14.045C15.4667 12.2242 16.2202 9.28527 15.2489 6.67508C14.2775 4.06489 11.7859 2.33359 9.00083 2.33359C6.21576 2.33359 3.72416 4.06489 2.75279 6.67508C1.78142 9.28527 2.535 12.2242 4.6425 14.045C5.53105 12.4742 7.1953 11.5022 9 11.5ZM9 10.6667C7.15905 10.6667 5.66667 9.17427 5.66667 7.33332C5.66667 5.49237 7.15905 3.99999 9 3.99999C10.8409 3.99999 12.3333 5.49237 12.3333 7.33332C12.3333 8.21738 11.9821 9.06523 11.357 9.69035C10.7319 10.3155 9.88406 10.6667 9 10.6667ZM9 5.66666C8.07953 5.66666 7.33333 6.41285 7.33333 7.33332C7.33333 8.2538 8.07953 8.99999 9 8.99999C9.92048 8.99999 10.6667 8.2538 10.6667 7.33332C10.6667 6.41285 9.92048 5.66666 9 5.66666Z" fill="#2E3A59"/>
</svg>
