<svg width="14" height="18" viewBox="0 0 14 18" fill="none" xmlns="http://www.w3.org/2000/svg">
<path d="M12 3.99999H10.3333C10.3333 2.15832 8.84167 0.666656 7 0.666656C5.15833 0.666656 3.66667 2.15832 3.66667 3.99999H2C1.08333 3.99999 0.333334 4.74999 0.333334 5.66666V15.6667C0.333334 16.5833 1.08333 17.3333 2 17.3333H12C12.9167 17.3333 13.6667 16.5833 13.6667 15.6667V5.66666C13.6667 4.74999 12.9167 3.99999 12 3.99999ZM7 2.33332C7.91667 2.33332 8.66667 3.08332 8.66667 3.99999H5.33333C5.33333 3.08332 6.08333 2.33332 7 2.33332ZM12 15.6667H2V5.66666H3.66667V7.33332C3.66667 7.79166 4.04167 8.16666 4.5 8.16666C4.95833 8.16666 5.33333 7.79166 5.33333 7.33332V5.66666H8.66667V7.33332C8.66667 7.79166 9.04167 8.16666 9.5 8.16666C9.95833 8.16666 10.3333 7.79166 10.3333 7.33332V5.66666H12V15.6667Z" fill="#323232"/>
</svg>
